<?xml version="1.0" encoding="UTF-8" standalone="no"?>
<svg
   id="Layer_1"
   version="1.1"
   viewBox="0 0 16000000 16000000"
   sodipodi:docname="Logo.svg"
   inkscape:export-filename="Logo.svg"
   inkscape:export-xdpi="96"
   inkscape:export-ydpi="96"
   width="16000000"
   height="16000000"
   xmlns:inkscape="http://www.inkscape.org/namespaces/inkscape"
   xmlns:sodipodi="http://sodipodi.sourceforge.net/DTD/sodipodi-0.dtd"
   xmlns="http://www.w3.org/2000/svg"
   xmlns:svg="http://www.w3.org/2000/svg">
  <sodipodi:namedview
     id="namedview18"
     pagecolor="#ffffff"
     bordercolor="#000000"
     borderopacity="0.25"
     inkscape:showpageshadow="2"
     inkscape:pageopacity="0.0"
     inkscape:pagecheckerboard="0"
     inkscape:deskcolor="#d1d1d1"
     inkscape:export-bgcolor="#ffffff00">
    <inkscape:page
       x="0"
       y="0"
       width="16000000"
       height="16000000"
       id="page2"
       margin="0"
       bleed="0" />
  </sodipodi:namedview>
  <!-- Generator: Adobe Illustrator 29.1.0, SVG Export Plug-In . SVG Version: 2.1.0 Build 142)  -->
  <defs
     id="defs1">
    <style
       id="style1">
      .st0 {
        fill: #fdfeff;
      }

      .st1 {
        fill: #19232a;
      }

      .st2 {
        fill: #ff008f;
      }
    </style>
  </defs>
  <path
     id="path1"
     class="st1"
     d="m 1974.9492,447.98047 c -198.99,0 -392.0784,38.99039 -573.8984,115.90039 -87.38,36.96 -171.6507,82.69922 -250.4707,135.94922 -78.05,52.73 -151.44088,113.28047 -218.13088,179.98047 -66.69,66.69 -127.24852,140.07895 -179.97852,218.12895 -53.25,78.82 -98.99117,163.0907 -135.95117,250.4707 -76.9,181.82 -115.90039,374.9103 -115.90039,573.9003 0,198.99 38.99039,392.0804 115.90039,573.9004 36.96,87.38 82.70117,171.6488 135.95117,250.4688 52.73,78.05 113.27852,151.4408 179.97852,218.1308 66.69,66.69 140.08088,127.2486 218.13088,179.9786 78.82,53.25 163.0907,98.9911 250.4707,135.9511 181.82,76.9 374.9084,115.9004 573.8984,115.9004 198.99,0 392.0804,-38.9904 573.9004,-115.9004 87.38,-36.96 171.6507,-82.7011 250.4707,-135.9511 78.05,-52.73 151.4389,-113.2786 218.1289,-179.9786 66.69,-66.7 127.2505,-140.0808 179.9805,-218.1308 53.25,-78.82 98.9912,-163.0888 135.9512,-250.4688 76.9,-181.82 115.8984,-374.9104 115.8984,-573.9004 0,-198.99 -38.9884,-392.0803 -115.8984,-573.9003 -36.96,-87.38 -82.7012,-171.6507 -135.9512,-250.4707 -52.73,-78.05 -113.2805,-151.43895 -179.9805,-218.12895 -66.69,-66.69 -140.0789,-127.25047 -218.1289,-179.98047 -78.82,-53.25 -163.0907,-98.98922 -250.4707,-135.94922 -181.82,-76.9 -374.9104,-115.90039 -573.9004,-115.90039 z m -0.8086,316.34961 c 249.97,0 481.4399,79.22945 670.6699,213.93945 l -44.4199,44.86137 c -4.81,-3.36 -9.6304,-6.6907 -14.4804,-9.9707 -58.61,-39.60024 -121.2798,-73.61965 -186.2598,-101.09965 -135.2,-57.18 -278.8008,-86.17969 -426.8008,-86.17969 -148,0 -291.5988,28.98969 -426.7988,86.17969 -64.97,27.48 -127.6417,61.49941 -186.2617,101.09965 h -0.01 c -4.21,2.84 -8.4001,5.7306 -12.5801,8.6406 l -43.6094,-43.62111 c 189.2,-134.66 420.5808,-213.84961 670.5508,-213.84961 z m -1.2812,134.55078 v 0.01 c 138.19,0 272.2211,27.05016 398.3711,80.41016 62.42,26.39998 121.58,58.65898 177.08,96.45898 l -44,44.4297 c -49.12,-32.53 -101.2197,-60.5097 -156.0097,-83.6797 -118.47,-50.10041 -244.281,-75.51 -373.961,-75.51 -129.68,0 -255.4989,25.39959 -373.9589,75.5098 -54.52,23.05 -106.3811,50.8711 -155.2911,83.2011 l -45.4589,-45.4707 c 54.86,-37.16 113.2693,-68.9011 174.8593,-94.95114 126.16,-53.35 260.1892,-80.4082 398.3692,-80.4082 z M 1974.3398,1034 v 0.01 c 119.85,0 236.0996,23.4602 345.5196,69.7402 46.13,19.51 90.1997,42.7002 132.0097,69.4102 l -44.6582,45.0996 c -35.61,-21.97 -72.9418,-41.2493 -111.8418,-57.6993 -101.77,-43.05 -209.8695,-64.8808 -321.2695,-64.8808 -111.4,0 -219.4895,21.8308 -321.2695,64.8808 -38.32,16.2 -75.1007,35.1393 -110.2207,56.6993 l -44.75,-44.7696 c 41.49,-26.43 85.2209,-49.4 130.9609,-68.75 109.42,-46.27 225.6695,-69.7402 345.5195,-69.7402 z m -0.2402,134.6699 c 101.59,0 200.1099,19.8894 292.8399,59.1094 30.2,12.78 59.3701,27.4213 87.4101,43.8613 l -46.9199,47.3887 c -21.5,-11.94 -43.6798,-22.7502 -66.5098,-32.4102 -85.15,-36.02 -175.5793,-54.2793 -268.7793,-54.2793 -93.2,0 -183.6312,18.2593 -268.7812,54.2793 -21.12,8.93 -41.6802,18.86 -61.6602,29.75 l -45.8691,-45.8789 c 27.44,-15.96 55.9297,-30.2211 85.4297,-42.7011 92.73,-39.22 191.2598,-59.1094 292.8398,-59.1094 z m 968.3301,93.75 c 24.66,38.8 166.9095,235.0492 197.7695,543.6192 39.54,493.5 -197.5996,776.1718 -197.5996,776.1718 l -109.0391,-108.8906 c 49.5,-68.14 169.4397,-266.1409 163.9297,-583.7109 -5.38,-309.98 -159.8808,-522.4492 -159.8808,-522.4492 z m -1935.0098,0.6699 104.8203,104.7403 c 0,0 -154.50084,212.4692 -159.88082,522.4492 -5.52,317.57 114.42972,515.5709 163.92972,583.7109 L 1007.25,2582.8809 c 0,0 -237.13961,-282.67 -197.59961,-776.17 30.86,-308.57 173.10973,-504.8211 197.76951,-543.6211 z m 964.7207,42.25 c 83.38,0 164.2496,16.3198 240.3496,48.5098 14.06,5.95 27.8496,12.3906 41.3496,19.3106 l -43.3906,43.83 c -7.03,-3.33 -14.1283,-6.5205 -21.3183,-9.5605 -68.74,-29.08 -141.7405,-43.8203 -216.9805,-43.8203 -75.24,0 -148.2405,14.7503 -216.9805,43.8203 -5.23,2.21 -10.4205,4.5111 -15.5605,6.8711 l -43.8301,-43.8399 c 11.79,-5.9 23.7898,-11.4413 36.0098,-16.6113 76.11,-32.19 156.9715,-48.5098 240.3515,-48.5098 z m 797.8692,129.211 c 0,0 300.31,431.6583 0,975.3183 l -110.7891,-110.6289 c 0,0 218.44,-346.25 0,-754.33 l 110.7891,-110.3497 z m -1590.17,0.6797 110.7911,110.3496 v 0.01 c -218.44,408.08 0,754.3301 0,754.3301 l -110.7911,110.6309 c -300.30952,-543.67 0,-975.3203 0,-975.3203 z m 1408.8008,179.9394 c 0,0 165.8892,284.8507 -0.6308,612.9707 l -105.3789,-105.2304 c 0,0 122.85,-163.6796 0,-402.2696 z m -1227.4297,0.6602 106.0098,105.4707 c -122.85,238.59 0,402.2695 0,402.2695 l -105.3809,105.2305 c -166.52,-328.12 -0.6289,-612.9707 -0.6289,-612.9707 z m 595.7442,54.623 a 251.81,251.81 0 0 1 196.0215,73.1114 251.81,251.81 0 0 1 0,356.1132 251.81,251.81 0 0 1 -356.1133,0 251.81,251.81 0 0 1 0,-356.1132 251.81,251.81 0 0 1 160.0918,-73.1114 z m 248.4043,756.9961 46.3105,46.1699 c -12.81,6.51 -25.8697,12.581 -39.1797,18.211 -76.107,32.1887 -156.9633,48.5085 -240.3398,48.5097 -83.38,0 -164.2496,-16.3197 -240.3496,-48.5097 -12.3,-5.2 -24.3915,-10.7903 -36.2715,-16.7403 l 46.3613,-46.2793 c 4.4,1.99 8.8193,3.9304 13.2793,5.8204 68.74,29.08 141.7405,43.8183 216.9805,43.8183 75.24,0 148.2405,-14.7483 216.9805,-43.8183 5.46,-2.31 10.8585,-4.7117 16.2285,-7.1817 z m 100.4101,100.1113 45.0508,44.9102 c -26.96,15.6 -54.9408,29.5588 -83.8808,41.7988 -92.7241,39.2175 -191.2473,59.1088 -292.8204,59.1114 -101.59,0 -200.1098,-19.8914 -292.8398,-59.1114 -28.81,-12.18 -56.6695,-26.0698 -83.5195,-41.5898 l 43.6308,-43.5488 c 20.08,10.96 40.7485,20.9496 61.9785,29.9296 85.15,36.02 175.5813,54.2793 268.7813,54.2793 93.2,0 183.6293,-18.2593 268.7793,-54.2793 22.24,-9.41 43.8598,-19.92 64.8398,-31.5 z m 98.4102,98.1094 45.8594,45.7207 c -41.27,26.22 -84.7197,49.02 -130.1797,68.25 -109.4141,46.2775 -225.6569,69.7475 -345.5,69.75 -119.85,0 -236.0996,-23.47 -345.5196,-69.75 -45.41,-19.2 -88.8207,-41.9799 -130.0507,-68.1699 l 45.6406,-45.5605 c 34.58,21.1 70.7501,39.6696 108.4101,55.5996 101.77,43.05 209.8696,64.8808 321.2696,64.8808 111.4,0 219.4915,-21.8308 321.2715,-64.8808 37.8,-15.99 74.1088,-34.6399 108.7988,-55.8399 z m 98.75,98.4492 45.1308,44.9903 c -55.43,37.73 -114.5,69.931 -176.83,96.291 -126.16,53.36 -260.1911,80.4101 -398.3711,80.4101 v 0.01 c -138.19,0 -272.2192,-27.0501 -398.3692,-80.4101 -61.59,-26.06 -120.0111,-57.801 -174.8711,-94.961 l 46.3008,-46.2187 c 48.66,32.1 100.251,59.7204 154.461,82.6504 118.47,50.1 244.2789,75.5097 373.9589,75.5097 129.68,0 255.501,-25.3997 373.961,-75.5097 54.27,-22.95 105.9089,-50.6118 154.6289,-82.7618 z m 97.6406,97.3301 44.4492,44.3106 c -189.26,134.78 -421.0096,214.0605 -670.8496,214.0605 -249.84,0 -481.1991,-79.1407 -670.3691,-213.7207 l 43.3496,-43.2695 c 4.2,2.93 8.4201,5.8392 12.6601,8.6992 58.61,39.6 121.2798,73.6216 186.2598,101.1016 135.2,57.18 278.7988,86.1796 426.7988,86.1796 148,0 291.6008,-28.9896 426.8008,-86.1796 64.97,-27.48 127.6398,-61.5016 186.2598,-101.1016 h 0.01 c 4.9,-3.31 9.7808,-6.6801 14.6308,-10.0801 z"
     inkscape:export-filename="path1.svg"
     inkscape:export-xdpi="96"
     inkscape:export-ydpi="96" />
  <path
     class="st0"
     d="m 1974.95,537.49 c -764.82,0 -1384.83,620.01 -1384.83,1384.83 0,764.82 620.01,1384.83 1384.83,1384.83 764.82,0 1384.83,-620.01 1384.83,-1384.83 0,-764.82 -620.01,-1384.83 -1384.83,-1384.83 z M 2808.83,1019 c 37.91,0 68.64,30.73 68.64,68.63 0,37.9 -30.73,68.63 -68.64,68.63 -37.91,0 -68.63,-30.73 -68.63,-68.63 0,-37.9 30.73,-68.63 68.63,-68.63 z M 1303.8,836.68 c 14.05,-11.76 24.76,-17.19 24.76,-17.19 0,0 229.5,-154.29 544.82,-173.57 448.39,-34.71 745.07,170.36 745.07,170.36 13.29,9.86 72,39.86 88.71,128.14 16.29,102 -49.29,161.57 -49.29,161.57 l -295.71,297 c -87.76,100.07 -212.01,126.91 -229.79,130.32 -48.68,-19.71 -101.89,-30.56 -157.64,-30.56 -55.75,0 -108.86,10.84 -157.5,30.51 -96.72,-13.18 -185.89,-86.01 -185.89,-86.01 0,0 -328.79,-325.78 -335.57,-333.64 -28.67,-33.23 -45.65,-68.66 -52.61,-106.31 -11.76,-63.65 11,-129.05 60.63,-170.6 z m 315.91,1373.81 c 36.89,0 66.8,29.91 66.8,66.8 0,36.89 -29.91,66.8 -66.8,66.8 -36.89,0 -66.8,-29.91 -66.8,-66.8 0,-36.89 29.91,-66.8 66.8,-66.8 z m -0.81,-576.08 c -36.89,0 -66.8,-29.91 -66.8,-66.8 0,-36.89 29.91,-66.8 66.8,-66.8 36.89,0 66.8,29.91 66.8,66.8 0,36.89 -29.91,66.8 -66.8,66.8 z m 49.57,287.91 c 0,-169.27 137.22,-306.48 306.48,-306.48 169.26,0 306.48,137.22 306.48,306.48 0,169.26 -137.22,306.48 -306.48,306.48 -169.26,0 -306.48,-137.22 -306.48,-306.48 z m 660.02,288.17 c 36.89,0 66.8,29.91 66.8,66.8 0,36.89 -29.91,66.8 -66.8,66.8 -36.89,0 -66.8,-29.91 -66.8,-66.8 0,-36.89 29.91,-66.8 66.8,-66.8 z m -66.8,-642.88 c 0,-36.89 29.91,-66.8 66.8,-66.8 36.89,0 66.8,29.91 66.8,66.8 0,36.89 -29.91,66.8 -66.8,66.8 -36.89,0 -66.8,-29.91 -66.8,-66.8 z M 1139.28,1019 c 37.91,0 68.64,30.73 68.64,68.63 0,37.9 -30.73,68.63 -68.64,68.63 -37.91,0 -68.63,-30.73 -68.63,-68.63 0,-37.9 30.73,-68.63 68.63,-68.63 z M 996.07,2655.39 c -88.29,-16.71 -118.29,-75.43 -128.14,-88.71 0,0 -205.07,-296.68 -170.36,-745.07 19.29,-315.32 173.57,-544.82 173.57,-544.82 0,0 5.42,-10.71 17.19,-24.76 41.55,-49.63 106.95,-72.38 170.6,-60.63 37.66,6.95 73.09,23.94 106.31,52.61 7.86,6.78 333.64,335.57 333.64,335.57 0,0 72.87,89.22 86.02,185.97 -19.69,48.66 -30.53,101.84 -30.53,157.56 0,55.72 10.85,108.94 30.55,157.61 -3.51,18.25 -30.47,142.12 -130.29,229.67 l -297,295.71 c 0,0 -59.57,65.57 -161.57,49.29 z m 143.74,170.59 c -37.91,0 -68.63,-30.73 -68.63,-68.63 0,-37.9 30.73,-68.64 68.63,-68.64 37.9,0 68.64,30.73 68.64,68.64 0,37.91 -30.73,68.63 -68.64,68.63 z m 1506.29,182.6 c -14.05,11.68 -24.76,17.07 -24.76,17.07 0,0 -229.5,153.24 -544.82,172.4 -448.39,34.48 -745.07,-169.2 -745.07,-169.2 -13.29,-9.79 -72,-39.59 -88.71,-127.27 -16.29,-101.31 49.29,-160.48 49.29,-160.48 l 295.71,-294.99 c 94.71,-107.27 231.96,-129.83 231.96,-129.83 h 6.04 c 46.31,17.56 96.54,27.18 149.01,27.18 52.47,0 102.7,-9.62 149.01,-27.18 h 5.48 c 98.04,11.81 189.32,85.88 189.32,85.88 0,0 328.79,323.57 335.57,331.38 28.67,33 45.65,68.19 52.61,105.59 11.76,63.22 -11,128.18 -60.63,169.45 z m 162.88,-182.6 c -37.91,0 -68.63,-30.73 -68.63,-68.63 0,-37.9 30.73,-68.64 68.63,-68.64 37.9,0 68.64,30.73 68.64,68.64 0,37.91 -30.73,68.63 -68.64,68.63 z m 145.35,-170.59 c -102,16.29 -161.57,-49.29 -161.57,-49.29 l -297,-295.71 c -103.48,-90.75 -128.66,-220.52 -130.59,-231.23 19.3,-48.25 29.93,-100.91 29.93,-156.05 0,-55.14 -10.59,-107.65 -29.84,-155.84 12.51,-97.42 86.25,-187.7 86.25,-187.7 0,0 325.78,-328.79 333.64,-335.57 33.23,-28.67 68.66,-45.65 106.31,-52.61 63.65,-11.76 129.05,11 170.6,60.63 11.76,14.05 17.19,24.76 17.19,24.76 0,0 154.29,229.5 173.57,544.82 34.71,448.39 -170.36,745.07 -170.36,745.07 -9.86,13.29 -39.86,72 -128.14,88.71 z"
     id="path18" />
</svg>
